<svg xmlns="http://www.w3.org/2000/svg" viewBox="0 0 24 24" width="24" height="24" fill="none" stroke="currentColor" stroke-width="2" stroke-linecap="round" stroke-linejoin="round">
  <!-- GitHub Octocat shape with node indicators -->
  <path d="M9 19c-5 1.5-5-2.5-7-3m14 6v-3.87a3.37 3.37 0 0 0-.94-2.61c3.14-.35 6.44-1.54 6.44-7A5.44 5.44 0 0 0 20 4.77 5.07 5.07 0 0 0 19.91 1S18.73.65 16 2.48a13.38 13.38 0 0 0-7 0C6.27.65 5.09 1 5.09 1A5.07 5.07 0 0 0 5 4.77a5.44 5.44 0 0 0-1.5 3.78c0 5.42 3.3 6.61 6.44 7A3.37 3.37 0 0 0 9 18.13V22" />
  <!-- Scraped Network Nodes -->
  <circle cx="12" cy="10" r="2" fill="#3b82f6" stroke="#3b82f6" stroke-width="1" />
  <circle cx="6" cy="7" r="1.5" fill="#8b5cf6" stroke="#8b5cf6" stroke-width="1" />
  <circle cx="18" cy="7" r="1.5" fill="#8b5cf6" stroke="#8b5cf6" stroke-width="1" />
  <line x1="6" y1="7" x2="12" y2="10" stroke="#8b5cf6" stroke-width="1" opacity="0.6" />
  <line x1="18" y1="7" x2="12" y2="10" stroke="#8b5cf6" stroke-width="1" opacity="0.6" />
</svg>
